<?xml version="1.0" standalone="no"?>
<!DOCTYPE svg PUBLIC "-//W3C//DTD SVG 20010904//EN"
 "http://www.w3.org/TR/2001/REC-SVG-20010904/DTD/svg10.dtd">
<svg version="1.0" xmlns="http://www.w3.org/2000/svg"
 width="700.000000pt" height="700.000000pt" viewBox="0 0 700.000000 700.000000"
 preserveAspectRatio="xMidYMid meet">
<metadata>
Created by potrace 1.14, written by Peter Selinger 2001-2017
</metadata>
<g transform="translate(0.000000,700.000000) scale(0.100000,-0.100000)"
fill="#000000" stroke="none">
<path d="M4599 6773 c-7 -32 -14 -63 -15 -70 -3 -18 -90 -417 -141 -653 -25
-113 -47 -215 -49 -228 -3 -13 -16 -75 -30 -139 -13 -64 -23 -117 -22 -118 2
-1 23 -12 48 -24 35 -17 46 -19 55 -9 7 7 45 56 86 108 42 52 196 248 344 435
148 187 336 426 418 530 83 105 157 198 165 208 14 16 -6 17 -416 17 l-431 0
-12 -57z"/>
<path d="M6749 6630 c-8 -11 -33 -39 -55 -62 -22 -24 -76 -83 -120 -133 -43
-49 -88 -98 -99 -110 -11 -11 -56 -61 -100 -110 -44 -48 -84 -93 -90 -99 -5
-6 -46 -51 -90 -100 -44 -50 -87 -97 -95 -106 -28 -30 -168 -185 -187 -206
-10 -12 -52 -58 -93 -104 -41 -46 -83 -92 -93 -104 -10 -12 -33 -37 -51 -56
-18 -19 -79 -87 -136 -150 -56 -63 -126 -140 -154 -170 -28 -31 -80 -89 -116
-129 -36 -40 -80 -90 -98 -110 -135 -145 -128 -132 -96 -180 15 -23 30 -41 35
-41 8 0 27 7 94 35 17 7 107 43 200 80 177 69 188 74 245 98 19 8 190 76 380
152 190 75 381 151 425 169 44 18 135 55 202 82 l122 49 0 663 c1 364 -3 662
-7 662 -4 0 -14 -9 -23 -20z"/>
<path d="M2388 5944 c-149 -26 -277 -94 -350 -186 -30 -38 -52 -81 -85 -168
-6 -14 -25 -101 -43 -195 -56 -296 -89 -393 -236 -704 -30 -62 -54 -115 -54
-117 0 -7 -250 -509 -310 -624 -117 -220 -130 -245 -140 -260 -5 -8 -57 -100
-116 -205 -210 -374 -504 -836 -730 -1144 l-89 -123 -1 -754 c0 -415 2 -754 5
-754 4 0 79 25 168 55 162 55 358 115 528 161 107 29 513 129 570 140 22 4 45
8 50 10 19 4 310 63 345 69 181 32 382 65 415 70 22 2 49 6 60 9 11 2 45 7 76
10 31 4 67 9 80 11 13 3 44 7 68 10 24 2 60 7 80 9 85 12 291 35 356 41 39 3
86 8 105 10 39 5 118 12 230 20 41 3 95 7 120 10 25 2 95 7 155 10 61 3 130 8
155 10 66 6 354 18 435 18 72 0 245 -12 255 -18 4 -3 44 -10 105 -20 11 -1 52
-8 90 -15 39 -6 82 -14 97 -17 60 -10 156 -9 218 3 264 49 466 356 497 754 9
124 4 340 -11 416 -2 12 -7 39 -10 60 -46 296 -140 606 -289 949 -27 63 -184
373 -222 440 -341 598 -722 1070 -1165 1441 -100 83 -217 174 -225 174 -3 0
-14 8 -25 18 -55 50 -393 240 -500 280 -262 98 -474 128 -662 96z m-14 -605
c7 -212 67 -441 203 -774 25 -60 47 -113 50 -117 4 -7 80 18 95 31 3 3 -2 47
-13 96 -48 222 -14 355 91 355 299 0 961 -703 1401 -1487 281 -500 419 -950
345 -1126 -24 -58 -76 -75 -159 -50 -53 15 -171 77 -217 112 l-24 19 -33 -36
c-18 -20 -33 -40 -33 -46 0 -15 254 -255 313 -295 12 -8 24 -18 27 -21 11 -13
128 -98 195 -142 85 -55 204 -113 276 -134 l53 -16 -24 -18 c-41 -31 -104 -43
-188 -37 -141 10 -298 77 -501 214 -69 47 -128 88 -131 92 -3 3 -23 19 -45 36
-40 29 -58 45 -164 140 -133 120 -360 357 -478 502 -29 34 -57 68 -63 75 -39
45 -194 252 -263 351 -404 578 -689 1164 -806 1657 -41 172 -50 245 -46 390 3
139 8 172 35 235 17 40 88 130 96 122 2 -2 6 -59 8 -128z"/>
<path d="M6705 4039 c-33 -11 -64 -21 -70 -23 -13 -3 -402 -129 -667 -216
-114 -37 -255 -83 -313 -101 l-106 -33 3 -43 c2 -53 10 -66 40 -70 13 -1 52
-7 88 -13 132 -20 406 -61 440 -66 19 -3 46 -7 60 -9 14 -2 57 -9 95 -15 39
-6 82 -13 96 -15 14 -3 43 -7 65 -9 39 -5 207 -31 296 -45 l47 -8 0 343 c1
189 -2 344 -7 343 -4 0 -34 -9 -67 -20z"/>
</g>
</svg>
