<?xml version="1.0" standalone="no"?>
<!DOCTYPE svg PUBLIC "-//W3C//DTD SVG 20010904//EN"
 "http://www.w3.org/TR/2001/REC-SVG-20010904/DTD/svg10.dtd">
<svg version="1.0" xmlns="http://www.w3.org/2000/svg"
 width="700.000000pt" height="700.000000pt" viewBox="0 0 700.000000 700.000000"
 preserveAspectRatio="xMidYMid meet">
<metadata>
Created by potrace 1.14, written by Peter Selinger 2001-2017
</metadata>
<g transform="translate(0.000000,700.000000) scale(0.100000,-0.100000)"
fill="#000000" stroke="none">
<path d="M3280 6994 c-19 -2 -84 -9 -145 -14 -639 -62 -1264 -315 -1795 -726
-149 -115 -481 -446 -595 -594 -410 -532 -653 -1132 -727 -1795 -17 -155 -17
-575 0 -730 75 -673 332 -1300 748 -1820 114 -143 339 -372 484 -494 537 -451
1163 -717 1885 -803 142 -17 586 -17 730 0 682 79 1268 318 1802 734 138 107
389 351 512 498 451 538 717 1162 803 1885 16 139 16 595 0 730 -77 629 -275
1158 -620 1649 -234 333 -577 668 -917 896 -460 308 -968 495 -1535 566 -117
15 -552 27 -630 18z m-65 -393 l70 -29 6 -58 c4 -33 10 -105 14 -160 l7 -101
-115 -102 c-63 -55 -123 -101 -132 -101 -10 0 -50 15 -89 34 -96 46 -111 73
-110 186 0 69 6 98 28 153 47 113 150 207 226 206 14 0 57 -13 95 -28z m1879
-95 c197 -38 372 -160 475 -330 18 -31 47 -95 64 -143 56 -163 48 -397 -20
-586 -104 -290 -321 -568 -652 -836 l-101 -82 24 -62 c13 -34 59 -152 101
-262 354 -925 605 -1800 605 -2109 l0 -91 -113 -45 c-170 -67 -448 -209 -582
-298 -409 -268 -625 -566 -706 -971 -10 -53 -24 -174 -31 -268 l-12 -173 -653
0 -654 0 6 403 c7 383 6 406 -13 478 -52 197 -153 317 -355 424 -48 26 -87 48
-87 50 0 6 1378 3734 1421 3845 126 324 282 573 478 763 252 244 529 345 805
293z m-1372 -293 c134 -55 139 -58 133 -83 -6 -24 -65 -151 -83 -178 -7 -11
-39 -1 -148 43 -76 32 -140 59 -142 60 -2 2 17 22 42 45 45 42 46 43 46 106 0
35 3 64 7 64 4 0 69 -26 145 -57z m-987 -896 c28 -11 55 -24 61 -29 7 -5 14
-63 18 -141 4 -72 10 -141 12 -153 4 -16 -17 -40 -103 -115 -59 -52 -115 -99
-123 -106 -12 -9 -29 -6 -84 17 -112 47 -139 85 -139 190 0 191 149 386 278
363 17 -3 53 -14 80 -26z m470 -373 c61 -25 114 -49 118 -53 13 -13 -67 -216
-84 -213 -8 1 -67 24 -132 50 l-118 47 52 45 51 46 -7 62 c-4 34 -3 62 2 62 4
0 58 -21 118 -46z m-959 -940 c61 -26 62 -27 68 -73 3 -25 8 -98 12 -161 l7
-115 -99 -85 c-156 -135 -131 -124 -209 -92 -88 34 -120 67 -136 136 -28 127
55 325 164 391 55 33 114 33 193 -1z m491 -381 l111 -45 -33 -92 c-45 -123
-46 -126 -54 -126 -3 0 -64 23 -135 52 l-129 51 51 46 51 46 -6 64 c-6 60 -5
64 13 57 10 -4 69 -27 131 -53z m-1060 -970 c38 -15 71 -31 74 -36 4 -5 9 -59
13 -120 3 -62 9 -130 12 -152 l6 -40 -104 -91 c-144 -127 -134 -122 -204 -94
-83 33 -102 48 -126 93 -17 34 -20 54 -16 122 4 68 10 95 40 157 54 114 136
187 210 188 15 0 58 -12 95 -27z m652 -448 c3 -4 -77 -206 -85 -214 -6 -7
-294 111 -294 120 0 4 21 25 46 46 l46 37 -6 68 -6 67 147 -61 c82 -33 150
-62 152 -63z"/>
<path d="M4415 6011 c-95 -43 -149 -151 -125 -250 14 -60 69 -127 124 -152
164 -74 348 77 306 252 -24 97 -115 169 -215 169 -27 0 -68 -9 -90 -19z"/>
<path d="M3948 4702 c-147 -85 -153 -276 -13 -374 76 -53 191 -47 261 14 90
79 105 200 38 299 -60 87 -193 116 -286 61z"/>
<path d="M3425 3415 c-22 -8 -59 -34 -82 -58 -66 -71 -80 -155 -39 -243 38
-82 108 -125 202 -125 117 0 215 98 215 214 0 95 -43 165 -125 203 -58 27
-112 30 -171 9z"/>
<path d="M2884 2066 c-82 -37 -144 -148 -129 -234 27 -164 219 -246 348 -148
123 93 122 270 -1 359 -38 27 -53 32 -115 34 -46 2 -83 -2 -103 -11z"/>
</g>
</svg>
